<?xml version="1.0" encoding="UTF-8" standalone="no"?>
<svg
   xmlns:dc="http://purl.org/dc/elements/1.1/"
   xmlns:cc="http://creativecommons.org/ns#"
   xmlns:rdf="http://www.w3.org/1999/02/22-rdf-syntax-ns#"
   xmlns:svg="http://www.w3.org/2000/svg"
   xmlns="http://www.w3.org/2000/svg"
   xmlns:sodipodi="http://sodipodi.sourceforge.net/DTD/sodipodi-0.dtd"
   xmlns:inkscape="http://www.inkscape.org/namespaces/inkscape"
   width="28"
   height="28"
   viewBox="0 0 28 28"
   version="1.1"
   id="svg6"
   sodipodi:docname="teamgenerator.svg"
   inkscape:export-filename="C:\Users\Domen\Desktop\path4526.png"
   inkscape:export-xdpi="241.905"
   inkscape:export-ydpi="241.905"
   inkscape:version="0.92.3 (2405546, 2018-03-11)">
  <metadata
     id="metadata12">
    <rdf:RDF>
      <cc:Work
         rdf:about="">
        <dc:format>image/svg+xml</dc:format>
        <dc:type
           rdf:resource="http://purl.org/dc/dcmitype/StillImage" />
        <dc:title></dc:title>
      </cc:Work>
    </rdf:RDF>
  </metadata>
  <defs
     id="defs10" />
  <sodipodi:namedview
     pagecolor="#ffffff"
     bordercolor="#666666"
     borderopacity="1"
     objecttolerance="10"
     gridtolerance="10"
     guidetolerance="10"
     inkscape:pageopacity="0"
     inkscape:pageshadow="2"
     inkscape:window-width="2560"
     inkscape:window-height="1377"
     id="namedview8"
     showgrid="false"
     inkscape:zoom="13.906433"
     inkscape:cx="20.771792"
     inkscape:cy="15.651698"
     inkscape:window-x="-8"
     inkscape:window-y="-8"
     inkscape:window-maximized="1"
     inkscape:current-layer="svg6" />
  <circle
     style="opacity:1;fill:#4caf50;fill-opacity:1;fill-rule:evenodd;stroke:#d5d5d5;stroke-width:0;stroke-linejoin:round;stroke-miterlimit:4;stroke-dasharray:none;stroke-opacity:1"
     id="path4526"
     cx="14"
     cy="14"
     r="13.999999"
     inkscape:export-xdpi="241.905"
     inkscape:export-ydpi="241.905"
     inkscape:export-filename="C:\Users\Domen\Desktop\path4526.png" />
  <path
     d="M 2.2175431,1.4229102 H 26.217543 V 25.42291 H 2.2175431 Z"
     id="path2"
     inkscape:connector-curvature="0"
     style="fill:none" />
  <path
     d="m 17.00326,13.784047 c 1.282902,0 2.310768,-1.009629 2.310768,-2.260362 0,-1.250734 -1.027866,-2.2603629 -2.310768,-2.2603629 -1.282902,0 -2.318498,1.0096289 -2.318498,2.2603629 0,1.250733 1.035596,2.260362 2.318498,2.260362 z m -6.18266,0 c 1.282902,0 2.310769,-1.009629 2.310769,-2.260362 0,-1.250734 -1.027867,-2.2603629 -2.310769,-2.2603629 -1.2829021,0 -2.3184976,1.0096289 -2.3184976,2.2603629 0,1.250733 1.0355955,2.260362 2.3184976,2.260362 z m 0,1.506909 c -1.8006999,0 -5.4098273,0.881541 -5.4098273,2.63709 v 1.883635 H 16.230427 v -1.883635 c 0,-1.755549 -3.609127,-2.63709 -5.409827,-2.63709 z m 6.18266,0 c -0.224121,0 -0.479156,0.01507 -0.749647,0.03767 0.896485,0.632902 1.522479,1.484305 1.522479,2.599418 v 1.883635 h 4.636995 v -1.883635 c 0,-1.755549 -3.609128,-2.63709 -5.409827,-2.637089 z"
     id="path4"
     style="fill:#fbc02d;fill-opacity:1;stroke:#00000f;stroke-width:0;stroke-miterlimit:4;stroke-dasharray:none;stroke-opacity:0.94117647"
     inkscape:connector-curvature="0"
     inkscape:export-filename="C:\Users\Domen\Desktop\path4.png"
     inkscape:export-xdpi="241.905"
     inkscape:export-ydpi="241.905" />
  <path
     style="opacity:1;fill:#000000;fill-opacity:0.18357489;fill-rule:evenodd;stroke:#00000f;stroke-width:0.00359546;stroke-linejoin:round;stroke-miterlimit:4;stroke-dasharray:none;stroke-opacity:0.94117647"
     d="m 14.371842,27.887763 c -0.04944,-0.05035 -2.059446,-1.882488 -4.4666858,-4.071422 l -4.376799,-3.97988 5.3589028,-0.0091 5.358902,-0.0091 -0.01133,-1.106377 -0.01133,-1.106378 -0.11631,-0.236123 C 15.791026,16.727526 15.009576,16.20027 13.77126,15.79329 12.512309,15.379528 11.180026,15.2098 10.073295,15.322184 c -0.7401585,0.07516 -2.0084645,0.360411 -2.4817586,0.558165 -0.073709,0.0308 -0.1392578,0.05075 -0.1456641,0.04435 -0.00641,-0.0064 0.10529,-0.09355 0.2482139,-0.193658 1.0448402,-0.731818 1.5774568,-1.506117 1.526877,-2.219719 -0.00992,-0.139995 -0.030745,-0.285355 -0.046271,-0.323021 -0.018741,-0.04547 0.03667,-0.01718 0.164846,0.08413 0.4404605,0.348164 0.9329448,0.515056 1.5087538,0.511283 0.604947,-0.004 1.109174,-0.201781 1.546578,-0.60675 0.311891,-0.288763 0.513627,-0.59436 0.635622,-0.962863 0.121144,-0.365929 0.1363,-0.951575 0.03345,-1.292485 C 12.924874,10.460658 12.60631,9.989949 12.269921,9.748373 12.180221,9.683952 12.111164,9.6269025 12.11647,9.6215961 c 0.0053,-0.00531 0.17921,0.046639 0.386453,0.1154351 0.998039,0.3313068 1.912269,0.4754618 2.39026,0.3768918 0.0791,-0.01631 0.191743,-0.04249 0.250317,-0.05818 l 0.106499,-0.02852 -0.109015,0.140641 c -0.176856,0.228161 -0.255069,0.376276 -0.349566,0.661983 -0.26931,0.814253 -0.06636,1.653368 0.547802,2.264955 0.468435,0.46647 1.014749,0.69113 1.679391,0.690614 0.656118,-5.1e-4 1.171493,-0.220703 1.649803,-0.70488 0.401778,-0.406706 0.605052,-0.844692 0.652425,-1.405757 0.04082,-0.483413 -0.154602,-1.1325 -0.454615,-1.510017 -0.06215,-0.07821 -0.09848,-0.147042 -0.08072,-0.15296 0.02914,-0.0097 9.134502,3.396878 9.177172,3.43346 0.0099,0.0085 0.01514,0.325568 0.01168,0.704647 -0.0291,3.183303 -1.13864,6.235363 -3.171767,8.724723 -0.389594,0.477018 -1.171839,1.28114 -1.641231,1.687132 -2.341749,2.02545 -5.26945,3.21552 -8.358055,3.397433 -0.330949,0.01949 -0.344364,0.01727 -0.431455,-0.07143 z m 8.047179,-9.175774 -0.01133,-1.106495 -0.115853,-0.232813 C 22.228118,17.244634 22.107223,17.060283 22.02318,16.963012 21.423545,16.268998 19.917158,15.641064 18.218982,15.37724 17.795554,15.31146 16.662273,15.265466 16.407221,15.30371 l -0.166483,0.02497 0.189133,0.14642 c 0.650155,0.503331 1.091735,1.139101 1.250167,1.799946 0.06287,0.262224 0.07106,0.425419 0.07128,1.419858 l 2.52e-4,1.123581 h 2.33939 2.33939 z"
     id="path4538"
     inkscape:connector-curvature="0" />
</svg>
